<svg xmlns="http://www.w3.org/2000/svg" width="194" height="35"><g fill="#FFF" fill-rule="evenodd"><text font-family="Montserrat-Bold, Montserrat" font-size="24" font-weight="bold"><tspan x="50" y="28">SOSTURTLE</tspan></text><path fill-rule="nonzero" d="M30 12.155a3.41 3.41 0 00-.994-2.419 3.38 3.38 0 00-4.799 0l-1.284 1.295a12.388 12.388 0 00-2.209-.902V5.76C20.714 2.584 18.151 0 15 0c-3.15 0-5.714 2.584-5.714 5.76v4.368c-.803.244-1.54.546-2.21.903L5.791 9.736a3.377 3.377 0 00-4.799 0 3.444 3.444 0 000 4.838l1.721 1.735c-.253.894-.394 1.86-.394 2.908 0 2.413.662 4.989 1.795 7.348l-1.606 1.62a3.444 3.444 0 000 4.837c.66.667 1.53 1 2.399 1s1.738-.333 2.4-1l.913-.92c2.583 2.972 9.095 4.665 13.558 0l.914.92c.661.667 1.53 1 2.4 1a3.37 3.37 0 002.399-1 3.445 3.445 0 000-4.837l-1.608-1.62c1.133-2.36 1.795-4.936 1.795-7.348 0-1.047-.14-2.013-.393-2.907l1.72-1.736A3.41 3.41 0 0030 12.155zm-4.465 7.062c0 2.303-.695 4.797-1.863 7.01-.033.058-.074.11-.097.17a15.412 15.412 0 01-2.51 3.435c-.003.005-.009.006-.013.01-.005.005-.006.012-.011.018-1.73 1.754-3.82 2.905-6.042 2.905-2.218 0-4.308-1.148-6.036-2.899-.007-.007-.01-.018-.016-.025-.006-.007-.014-.008-.02-.013a15.456 15.456 0 01-2.51-3.438c-.014-.04-.043-.074-.063-.113-1.185-2.225-1.892-4.739-1.892-7.06 0-6.36 5.73-7.695 10.537-7.695 4.806 0 10.536 1.335 10.536 7.695zM11.428 5.761c0-1.986 1.602-3.6 3.57-3.6 1.97 0 3.573 1.614 3.573 3.6v3.88A22.338 22.338 0 0015 9.36c-1.283 0-2.468.101-3.571.28V5.76zm-8.92 7.285a1.27 1.27 0 010-1.782 1.245 1.245 0 011.768 0l.991 1a8.246 8.246 0 00-1.64 1.911l-1.12-1.129zm1.515 18.449a1.27 1.27 0 010-1.783l1.169-1.178c.458.722.97 1.4 1.516 2.037l-.917.924a1.245 1.245 0 01-1.768 0zm21.953-1.783a1.27 1.27 0 010 1.783 1.245 1.245 0 01-1.769 0l-.918-.925a17.617 17.617 0 001.517-2.037l1.17 1.18zm1.515-16.666l-1.12 1.13a8.246 8.246 0 00-1.64-1.912l.991-1a1.246 1.246 0 011.769 0c.236.238.366.555.366.891 0 .337-.13.653-.366.891z"/></g></svg>